<?xml version="1.0" standalone="no"?>
<!DOCTYPE svg PUBLIC "-//W3C//DTD SVG 20010904//EN"
 "http://www.w3.org/TR/2001/REC-SVG-20010904/DTD/svg10.dtd">
<svg version="1.0" xmlns="http://www.w3.org/2000/svg"
 width="260.000000pt" height="260.000000pt" viewBox="0 0 260.000000 260.000000"
 preserveAspectRatio="xMidYMid meet">
<metadata>
Created by potrace 1.11, written by Peter Selinger 2001-2013
</metadata>
<g transform="translate(0.000000,260.000000) scale(0.100000,-0.100000)"
fill="#000000" stroke="none">
<path d="M12 2108 c-17 -17 -17 -1599 0 -1616 17 -17 1519 -17 1536 0 17 17
17 1599 0 1616 -17 17 -1519 17 -1536 0z m903 -372 c25 -15 45 -32 45 -39 -1
-7 -16 -29 -34 -49 -32 -37 -33 -37 -50 -19 -25 28 -71 44 -102 37 -76 -19
-102 -129 -45 -187 36 -35 81 -38 130 -8 l34 21 35 -36 c32 -31 34 -37 21 -52
-24 -30 -111 -64 -162 -64 -201 0 -295 251 -141 378 50 42 85 52 161 48 45 -3
75 -11 108 -30z m-217 -684 c45 -109 82 -201 82 -205 0 -4 -29 -7 -64 -7 l-64
0 -12 35 -12 35 -83 0 -83 0 -12 -35 -12 -35 -64 0 -64 0 13 33 c8 17 47 110
88 205 l73 172 66 0 66 0 82 -198z m410 184 c85 -44 103 -166 35 -238 l-26
-27 42 -65 41 -66 -70 0 -70 0 -27 55 c-25 50 -30 55 -60 55 l-33 0 0 -55 0
-55 -60 0 -60 0 0 205 0 205 130 0 c93 0 139 -4 158 -14z"/>
<path d="M521 1064 c-11 -31 -21 -58 -21 -60 0 -2 21 -4 46 -4 43 0 46 1 40
23 -7 29 -35 97 -40 97 -2 0 -13 -25 -25 -56z"/>
<path d="M940 1105 l0 -55 49 0 c74 0 101 37 65 88 -12 18 -25 22 -65 22 l-49
0 0 -55z"/>
<path d="M1890 2020 c0 -119 14 -161 61 -185 45 -24 124 -22 158 2 47 35 61
78 61 186 l0 97 -45 0 -45 0 0 -99 c0 -108 -10 -131 -55 -131 -36 0 -45 28
-45 134 l0 96 -45 0 -45 0 0 -100z"/>
<path d="M2210 1970 l0 -150 45 0 45 0 0 150 0 150 -45 0 -45 0 0 -150z"/>
<path d="M1890 1500 l0 -150 45 0 c44 0 45 0 45 34 0 19 8 44 18 57 l19 22 34
-56 34 -57 53 0 c54 0 54 0 40 23 -8 12 -34 53 -58 90 l-43 68 40 42 c72 77
72 77 15 77 -48 0 -51 -2 -93 -55 -24 -30 -47 -54 -51 -55 -5 0 -8 25 -8 55
l0 55 -45 0 -45 0 0 -150z"/>
<path d="M2220 1500 l0 -150 45 0 45 0 0 150 0 150 -45 0 -45 0 0 -150z"/>
<path d="M2340 1615 c0 -34 1 -35 40 -35 l40 0 0 -115 0 -115 45 0 45 0 0 115
0 115 45 0 c45 0 45 0 45 35 l0 35 -130 0 -130 0 0 -35z"/>
</g>
</svg>
